<?xml version="1.0" encoding="UTF-8"?>
<svg xmlns="http://www.w3.org/2000/svg" xmlns:xlink="http://www.w3.org/1999/xlink" width="256pt" height="256pt" viewBox="0 0 256 256" version="1.1">
<g id="surface1">
<path style=" stroke:none;fill-rule:nonzero;fill:rgb(0%,0%,0%);fill-opacity:1;" d="M 121.855469 21.503906 C 121.855469 21.503906 121.496094 17.945312 121.726562 16.820312 C 121.957031 15.71875 122.546875 15.769531 122.597656 13.59375 C 122.648438 11.417969 122.597656 10.136719 123.417969 9.320312 C 124.238281 8.5 126.105469 5.042969 127.386719 4.53125 C 128.664062 3.992188 130.714844 2.894531 131.941406 3.019531 C 133.171875 3.148438 133.171875 3.148438 134.808594 2.839844 C 136.449219 2.535156 137.546875 2.304688 139.265625 2.96875 C 140.953125 3.609375 142.769531 4.328125 143.949219 4.839844 C 145.125 5.375 149.914062 9.703125 150.679688 11.621094 C 151.449219 13.542969 151.449219 14.078125 151.550781 14.949219 C 151.679688 15.820312 151.78125 17.050781 151.550781 17.996094 C 151.320312 18.945312 151.269531 20.222656 151.269531 20.503906 C 151.269531 20.789062 151.398438 21.195312 151.398438 21.195312 C 151.398438 21.195312 150.9375 24.753906 150.757812 26.523438 C 150.578125 28.289062 149.8125 30.15625 149.53125 30.976562 C 149.246094 31.796875 148.121094 32.382812 147.660156 32.027344 C 147.660156 32.027344 147.660156 35.429688 146.894531 35.839844 C 146.894531 35.839844 148.402344 37.605469 150.042969 38.015625 C 151.679688 38.425781 160.382812 40.933594 161.382812 42.164062 C 162.378906 43.390625 164.890625 44.441406 165.707031 46.667969 C 166.527344 48.894531 169.035156 54.222656 169.753906 56.449219 C 170.445312 58.675781 171.851562 62.234375 172.082031 64.410156 C 172.3125 66.585938 173.902344 78.257812 174.898438 80.203125 C 175.898438 82.125 175.71875 88.679688 176.179688 90.957031 C 176.640625 93.234375 177.816406 100.148438 177.636719 101.964844 C 177.460938 103.78125 175.871094 116.53125 175.230469 118.167969 C 174.59375 119.808594 172.238281 123.546875 171.902344 124.953125 C 171.546875 126.363281 171.496094 128 170.90625 128.921875 C 170.316406 129.867188 169.214844 132.199219 169.320312 134.347656 C 169.445312 136.523438 169.265625 138.214844 168.859375 139.726562 C 168.449219 141.234375 166.9375 145.101562 166.453125 146.226562 C 165.992188 147.328125 161.585938 152.652344 161.175781 153.242188 C 160.769531 153.832031 160.359375 154.929688 160.359375 154.929688 C 160.359375 154.929688 158.71875 165.121094 158.847656 166.679688 C 158.976562 168.269531 158.796875 169.140625 158.488281 169.601562 C 158.207031 170.0625 157.492188 170.136719 157.796875 171.828125 C 158.078125 173.515625 158.4375 181.761719 158.796875 182.886719 C 159.15625 183.988281 160.5625 186.804688 160.257812 188.800781 C 159.972656 190.796875 159.566406 201.035156 159.566406 202.546875 C 159.566406 204.058594 157.976562 217.574219 157.796875 218.980469 C 157.621094 220.390625 156.109375 223.769531 156.109375 225.535156 C 156.109375 227.300781 155.980469 232.960938 155.980469 232.960938 L 154.753906 237.335938 L 153.882812 237.285156 C 153.882812 237.285156 155.519531 242.304688 156.46875 244.300781 C 157.414062 246.296875 158.875 247.117188 157.824219 249.675781 C 156.773438 252.261719 153.371094 253.902344 149.402344 253.3125 C 145.433594 252.722656 142.617188 252.773438 142.15625 248.859375 C 141.695312 244.941406 141.464844 243.585938 141.464844 242.253906 C 141.464844 240.921875 141.464844 241.203125 141.234375 240.152344 C 141.003906 239.105469 141.234375 236.875 141.234375 236.875 C 141.234375 236.875 139.957031 227.917969 139.957031 225.996094 C 139.957031 224.078125 138.957031 217.933594 138.777344 216.34375 C 138.597656 214.757812 137.675781 210.609375 138.085938 208.050781 C 138.496094 205.464844 138.367188 201.394531 138.367188 198.988281 C 138.367188 196.582031 138.316406 195.125 138.1875 193.84375 C 138.0625 192.5625 138.46875 190.105469 139.058594 188.339844 C 139.648438 186.574219 139.109375 184.601562 139.46875 182.144531 C 139.828125 179.6875 139.339844 174.824219 139.46875 172.953125 C 139.597656 171.085938 139.828125 166.296875 139.75 165.222656 C 139.699219 164.171875 139.339844 163.585938 139.339844 163.585938 C 139.339844 163.585938 137.011719 161.125 137.242188 159.898438 C 137.472656 158.667969 137.523438 158.207031 137.472656 157.082031 C 137.421875 155.980469 135.707031 150.9375 135.78125 149.9375 C 135.832031 148.941406 136.242188 148.351562 136.011719 147.839844 C 135.78125 147.300781 134.375 145.023438 134.375 145.023438 C 134.375 145.023438 134.195312 149.171875 133.914062 150.222656 C 133.632812 151.269531 132.558594 152.140625 132.632812 153.675781 C 132.683594 155.1875 133.453125 159.28125 133.582031 160.921875 C 133.707031 162.558594 133.8125 169.0625 133.632812 170.164062 C 133.453125 171.265625 131.992188 174.949219 131.941406 176.257812 C 131.890625 177.535156 131.585938 182.273438 131.25 183.21875 C 130.894531 184.167969 130.96875 191.105469 130.714844 192.640625 C 130.484375 194.152344 129.714844 201.011719 129.894531 202.164062 C 130.074219 203.339844 129.304688 206.027344 129.714844 207.308594 C 130.125 208.589844 131.941406 214.453125 131.941406 217.242188 C 131.941406 220.058594 131.890625 223.257812 131.890625 225.253906 C 131.890625 227.25 131.480469 232.804688 131.480469 232.804688 C 131.480469 232.804688 128.488281 241.996094 127.4375 242.917969 C 126.386719 243.867188 120.832031 244.558594 119.246094 244.019531 C 117.65625 243.480469 113.332031 243.25 113.742188 240.511719 C 114.152344 237.773438 115.25 234.726562 115.839844 234.085938 C 115.839844 234.085938 114.328125 232.910156 114.328125 231.21875 C 114.328125 229.53125 114.097656 218.007812 113.792969 216.242188 C 113.511719 214.476562 113.253906 212.273438 113.101562 210.097656 C 112.921875 207.921875 112.410156 203.496094 112.410156 201.546875 C 112.410156 199.628906 111.589844 191.71875 111.230469 189.671875 C 110.875 187.621094 110.363281 179.378906 110.234375 177.921875 C 110.105469 176.460938 108.644531 168.398438 108.875 167.089844 C 109.105469 165.8125 107.597656 155.265625 107.597656 154.035156 C 107.597656 152.804688 105.957031 143.335938 106.1875 140.699219 C 106.417969 138.0625 105.726562 131.992188 105.726562 129.691406 C 105.726562 127.410156 106.007812 121.089844 106.316406 118.808594 C 106.597656 116.53125 105.496094 113.304688 106.265625 111.335938 C 107.035156 109.335938 108.953125 107.417969 108.953125 107.007812 C 108.953125 106.597656 108.542969 102.324219 109.414062 101.632812 C 109.414062 101.632812 103.988281 98.125 103.5 96.078125 C 103.039062 94.027344 102.910156 93.566406 103.449219 92.929688 C 103.988281 92.289062 104.398438 92.875 104.5 91.46875 C 104.628906 90.0625 106.085938 81.460938 106.085938 81.460938 C 106.085938 81.460938 103.425781 88.191406 102.910156 90.113281 C 102.375 92.03125 101.144531 95.15625 100.632812 96.128906 C 100.097656 97.125 99.046875 97.175781 98.816406 98.304688 C 98.585938 99.40625 98.6875 100.171875 97.816406 100.402344 C 96.945312 100.632812 96.871094 100.992188 96.179688 101.222656 C 95.488281 101.453125 94.363281 103.730469 93.902344 104.78125 C 93.441406 105.832031 92.800781 105.652344 92.441406 106.46875 C 92.082031 107.289062 92.160156 107.980469 92.160156 108.929688 C 92.160156 109.875 92.03125 112.664062 92.109375 113.792969 C 92.160156 114.894531 92.339844 116.429688 91.828125 118.167969 C 91.289062 119.9375 90.648438 120.910156 90.546875 122.214844 C 90.417969 123.496094 90.316406 124.621094 90.085938 125.082031 C 89.855469 125.542969 89.90625 126.59375 90.035156 127 C 90.164062 127.410156 88.523438 128.589844 87.707031 126.949219 L 89.933594 253.414062 L 87.066406 253.414062 L 84.148438 129.945312 C 84.148438 129.945312 83.199219 129 82.558594 127.4375 C 81.921875 125.847656 81.5625 125.566406 81.382812 124.210938 C 81.203125 122.855469 80.921875 121.113281 80.921875 121.113281 C 80.921875 121.113281 79.691406 120.703125 79.230469 119.425781 C 78.769531 118.144531 78.054688 117.964844 78.59375 116.839844 C 79.128906 115.738281 78.875 115.839844 79.820312 114.839844 C 80.769531 113.84375 81.742188 113.023438 81.742188 112.101562 C 81.742188 111.15625 82.203125 106.597656 82.203125 105.445312 C 82.203125 104.269531 82.433594 105.214844 82.074219 103.757812 C 81.714844 102.296875 80.894531 96.921875 80.792969 95.511719 C 80.664062 94.105469 80.433594 94.285156 80.792969 92.699219 C 81.152344 91.109375 80.921875 86.785156 81.664062 85.453125 C 82.433594 84.097656 82.609375 84.503906 83.070312 82.996094 C 83.53125 81.484375 83.019531 81.230469 83.660156 79.71875 C 84.300781 78.207031 85.246094 76.082031 86.117188 74.445312 C 86.988281 72.804688 94.078125 60.289062 94.769531 58.828125 C 95.460938 57.371094 103.730469 45.722656 105.292969 44.621094 C 106.878906 43.519531 110.71875 41.0625 112.128906 40.753906 C 113.535156 40.472656 118.042969 39.527344 119.269531 38.988281 C 120.5 38.453125 120.859375 38.347656 121.777344 38.347656 C 122.726562 38.347656 124.058594 37.65625 124.875 37.070312 C 125.695312 36.480469 126.234375 34.894531 126.234375 34.894531 L 125.363281 32.203125 C 125.363281 32.203125 124.007812 32.488281 123.597656 31.207031 C 123.1875 29.925781 122.648438 25.832031 122.238281 24.960938 C 121.804688 24.089844 120.804688 21.914062 121.855469 21.503906 Z M 121.855469 21.503906 "/>
</g>
</svg>
