<svg width="25" height="25" xmlns="http://www.w3.org/2000/svg">

 <g>
  <title>background</title>
  <rect fill="none" id="canvas_background" height="27" width="27" y="-1" x="-1"/>
 </g>
 <g>
  <title>Layer 1</title>
  <path stroke="null" id="svg_1" d="m7.401779,13.855491c-0.06293,0.160496 -0.04049,0.252208 -0.04049,0.252208l0.082443,1.190792c-0.040978,1.629351 -0.754185,2.162061 -0.754185,2.162061l1.008832,6.490573c-1.147375,-0.413192 -2.223039,-0.966878 -3.206992,-1.637156l-0.419533,-4.683164c0,0 -0.225377,-0.113664 -0.673693,-0.320016c-0.44734,-0.205864 -0.916144,-0.78443 -1.035662,-0.982489c-0.117079,-0.198547 -0.394166,-0.753697 -1.067859,-1.262015c-0.672229,-0.508806 -0.737111,-0.265867 -0.91468,-0.574663c-0.178546,-0.30782 0.268794,-0.501977 0.268794,-0.501977s1.24299,-0.242451 2.293287,1.067859c0,0 0.031709,-0.008293 0.088297,-0.016098l0.014635,-0.049759c-0.012684,0.001463 -0.020001,0.001463 -0.020001,0.001463c0.00683,-0.000976 0.013171,-0.001463 0.020489,-0.001951l0.06293,-0.212206c0,0 0.002439,-0.033172 0.005854,-0.085858c0.335627,-0.00683 1.553249,0.046832 2.066934,1.136155c0.032197,0.05171 0.064881,0.104396 0.09659,0.160496c0,0 -0.09659,-1.526419 -2.163036,-1.300554c0.010244,-0.164399 0.028782,-0.512709 0.009269,-0.678571c-0.026343,-0.220499 -0.121957,-0.432705 -0.121957,-0.432705l-1.064444,-2.509883c0,0 -0.202937,-0.422948 0.173667,-0.621007c0.376117,-0.198059 0.581493,0.142934 0.581493,0.142934s1.127862,2.254261 1.255186,2.533299c0.127324,0.278551 0.297088,-0.081468 0.297088,-0.081468l-0.406362,-3.012348c0,0 -0.117079,-0.49222 0.41124,-0.60247c0.528319,-0.109274 0.574663,0.673693 0.574663,0.673693s0.355628,2.593302 0.403435,2.894293c0.048295,0.300503 0.213182,0.010244 0.213182,0.010244s0.397581,-2.494273 0.43612,-2.758189c0.040002,-0.264404 0.121957,-0.556614 0.512221,-0.54393c0.390264,0.012196 0.336602,0.853702 0.336602,0.853702s-0.298064,2.531348 -0.311235,2.721114c-0.012684,0.190254 0.111713,0.140007 0.111713,0.140007s0.944926,-1.948391 1.022003,-2.086935c0.078053,-0.139519 0.229768,-0.44051 0.613202,-0.28538c0.382946,0.154154 0.002439,1.000539 0.002439,1.000539s-0.698572,1.64984 -0.762478,1.80936zm17.285754,-1.322018c-0.323919,-0.221962 -0.526856,0.026831 -0.626861,0.138544c-0.100005,0.112689 -1.37324,1.728868 -1.37324,1.728868s-0.125372,0.020489 -0.074638,-0.152203c0.050734,-0.173667 0.843457,-2.460125 0.843457,-2.460125s0.220499,-0.770771 -0.138056,-0.862483s-0.494659,0.163423 -0.586371,0.40002c-0.088297,0.23611 -0.965903,2.469393 -0.965903,2.469393s-0.213669,0.23611 -0.195132,-0.051222c0.016586,-0.288795 0.215133,-2.767945 0.215133,-2.767945s0.117079,-0.735647 -0.39563,-0.741989c-0.513685,-0.005366 -0.502952,0.475146 -0.502952,0.475146l-0.238549,2.876731c0,0 -0.231719,0.300015 -0.292698,0.015611c-0.060979,-0.28538 -0.647838,-2.606474 -0.647838,-2.606474s-0.120006,-0.359043 -0.509782,-0.25172c-0.389776,0.106835 -0.287819,0.540515 -0.287819,0.540515l0.475634,2.545007c0,0 0.045856,0.215621 0.025367,0.425875c-0.015123,0.154154 -0.099517,0.460999 -0.14391,0.615641c1.892291,0.236597 1.677158,1.638132 1.677158,1.638132c-0.01805,-0.059027 -0.038051,-0.115128 -0.058052,-0.170253c-0.239037,-1.04737 -1.24299,-1.37324 -1.621546,-1.460074c-0.014635,0.05171 -0.024879,0.08537 -0.024879,0.08537l-0.101956,0.183912c-0.007317,-0.000976 -0.012684,-0.001463 -0.020977,-0.002439c0,0 0.008293,0.000976 0.020977,0.002927l-0.023904,0.043417c-0.054149,-0.003903 -0.085858,-0.003415 -0.085858,-0.003415c-0.706865,-1.430316 -1.908877,-1.458611 -1.908877,-1.458611s-0.455633,0.089761 -0.353189,0.41124c0.101956,0.323431 0.212694,0.111713 0.73272,0.720036c0.521002,0.608811 0.664912,1.180548 0.733696,1.388363c0.06976,0.207815 0.386361,0.841506 0.760526,1.122496c0.37319,0.282453 0.559053,0.434656 0.559053,0.434656l-0.719549,5.629554c1.073225,-0.504416 2.068885,-1.137131 2.968931,-1.875705l0.21123,-3.37822c0,0 0.770283,-0.347823 1.140546,-1.851313l0.165862,-1.121032c0,0 -0.001951,-0.089761 0.090248,-0.225377c0.091224,-0.136104 1.075664,-1.523004 1.075664,-1.523004s0.526368,-0.706865 0.201961,-0.927852zm-5.279292,-8.900939c-0.589298,-0.322943 -0.893704,0.133177 -1.046394,0.342456c-0.152203,0.208791 -2.053275,3.174795 -2.053275,3.174795s-0.209767,0.057076 -0.152203,-0.246842c0.056588,-0.304893 1.026393,-4.335342 1.026393,-4.335342s0.246842,-1.349337 -0.380019,-1.444951c-0.626861,-0.094639 -0.817602,0.361482 -0.931267,0.78004c-0.114152,0.41807 -1.235672,4.372417 -1.235672,4.372417s-0.323431,0.437583 -0.341969,-0.057076s-0.094639,-4.752924 -0.094639,-4.752924s0.076101,-1.274211 -0.799065,-1.198109c-0.874678,0.076101 -0.779552,0.894192 -0.779552,0.894192l0.075614,4.94269c0,0 -0.342456,0.55076 -0.494659,0.076101c-0.151715,-0.475634 -1.53959,-4.334854 -1.53959,-4.334854s-0.266355,-0.589786 -0.912729,-0.342456c-0.646374,0.24733 -0.399532,0.969805 -0.399532,0.969805l1.23616,4.258752c0,0 0.113664,0.361482 0.113664,0.721988c0,0.361482 -0.171228,1.23616 -0.171228,1.23616l-0.017074,0.039514c3.369439,0.039514 3.230408,2.516225 3.230408,2.516225c-0.040002,-0.095127 -0.080492,-0.183912 -0.122933,-0.272697c-0.613202,-1.84985 -2.551349,-2.179623 -3.110402,-2.236699l-0.122445,0.283917c-0.011708,0 -0.02244,-0.000488 -0.034148,-0.000488c0,0 0.011708,0.000488 0.03366,0.001951l-0.03366,0.077565c-0.092688,0.002927 -0.145861,0.009757 -0.145861,0.009757c-1.443976,-2.320118 -3.497738,-2.167915 -3.497738,-2.167915s-0.760526,0.228304 -0.530759,0.760526c0.228304,0.532222 0.380019,0.152691 1.36885,1.102495c0.988343,0.95078 1.330799,1.90156 1.483002,2.243528c0.152203,0.342944 0.798577,1.369338 1.483002,1.78692c0.683449,0.418558 1.026393,0.646862 1.026393,0.646862l-0.327821,11.258619c0.471243,0.045856 0.949316,0.06976 1.433243,0.06976c1.219574,0 2.403536,-0.149276 3.532374,-0.428802l-0.379531,-10.671272c0,0 1.255186,-0.721988 1.635205,-3.346023l0.094639,-1.93961c0,0 -0.018538,-0.152203 0.113176,-0.399532c0.133665,-0.246354 1.578129,-2.775263 1.578129,-2.775263s0.779064,-1.292748 0.190254,-1.616179z"/>
 </g>
</svg>